# Blender 4.0.2
# www.blender.org
mtllib ship.mtl
o Cube
v -2.127902 -0.241525 2.127902
v -1.808234 0.241525 1.808234
v -2.127902 -0.241525 -2.127902
v -1.808234 0.241525 -1.808234
v 2.127902 -0.241525 2.127902
v 1.808234 0.486765 1.562994
v 2.127902 -0.241525 -2.127902
v 1.808234 0.486765 -1.562994
v -2.127902 0.241525 2.127902
v -2.127902 0.241525 -2.127902
v 2.127902 0.486765 -1.882662
v 2.127902 0.486765 1.882662
v -2.127902 3.644430 2.127902
v -2.127902 3.644430 -2.127902
v 2.127902 3.399190 -1.882662
v 2.127902 3.399190 1.882662
v -1.808234 3.644430 1.808234
v -1.808234 3.644430 -1.808234
v 1.808234 3.399190 -1.562994
v 1.808234 3.399190 1.562994
v 2.127902 0.241525 -2.127902
v 2.127902 0.241525 2.127902
v 1.808234 0.241525 -1.808234
v 1.808234 0.241525 1.808234
v 1.808234 3.644430 -1.808234
v 1.808234 3.644430 1.808234
v 2.127902 3.644430 -2.127902
v 2.127902 3.644430 2.127902
vn -1.0000 -0.0000 -0.0000
vn -0.0000 -0.0000 -1.0000
vn 1.0000 -0.0000 -0.0000
vn -0.0000 -0.0000 1.0000
vn -0.0000 -1.0000 -0.0000
vn -0.0000 1.0000 -0.0000
vn 0.7071 -0.0000 -0.7071
vn 0.7071 -0.0000 0.7071
vt 0.375000 0.000000
vt 0.625000 0.000000
vt 0.625000 0.250000
vt 0.375000 0.250000
vt 0.625000 0.500000
vt 0.375000 0.500000
vt 0.625000 0.750000
vt 0.375000 0.750000
vt 0.625000 1.000000
vt 0.375000 1.000000
vt 0.125000 0.500000
vt 0.125000 0.750000
vt 0.643778 0.518778
vt 0.856222 0.518778
vt 0.856222 0.731222
vt 0.643778 0.731222
vt 0.875000 0.500000
vt 0.875000 0.750000
vt 0.000000 0.000000
vt 0.625000 0.514406
vt 0.625000 0.735594
vt 0.643778 0.716815
vt 0.643778 0.533185
vt 0.643778 0.533185
vt 0.643778 0.716815
vt 0.625000 0.735594
vt 0.625000 0.514406
s 0
f 1/1/1 9/2/1 10/3/1 3/4/1
f 3/4/2 10/3/2 21/5/2 7/6/2
f 7/6/3 21/5/3 22/7/3 5/8/3
f 5/8/4 22/7/4 9/9/4 1/10/4
f 3/11/5 7/6/5 5/8/5 1/12/5
f 23/13/6 4/14/6 2/15/6 24/16/6
f 9/9/4 22/7/4 28/7/4 13/9/4
f 10/3/1 9/2/1 13/2/1 14/3/1
f 4/14/4 23/13/4 25/13/4 18/14/4
f 24/16/2 2/15/2 17/15/2 26/16/2
f 17/15/6 18/14/6 14/17/6 13/18/6
f 18/14/6 25/13/6 27/5/6 14/17/6
f 25/13/6 26/16/6 28/7/6 27/5/6
f 26/16/6 17/15/6 13/18/6 28/7/6
f 21/5/2 10/3/2 14/3/2 27/5/2
f 2/15/3 4/14/3 18/14/3 17/15/3
f 26/19/5 17/19/5 18/19/5 25/19/5
f 11/20/3 12/21/3 22/7/3 21/5/3
f 6/22/1 8/23/1 23/13/1 24/16/1
f 8/23/1 19/24/1 25/13/1 23/13/1
f 20/25/1 6/22/1 24/16/1 26/16/1
f 16/26/3 15/27/3 27/5/3 28/7/3
f 19/24/1 20/25/1 26/16/1 25/13/1
f 12/21/3 16/26/3 28/7/3 22/7/3
f 15/27/3 11/20/3 21/5/3 27/5/3
f 6/22/7 20/25/7 16/26/7 12/21/7
f 20/25/5 19/24/5 15/27/5 16/26/5
f 19/24/8 8/23/8 11/20/8 15/27/8
f 8/23/6 6/22/6 12/21/6 11/20/6
