# Blender 4.0.2
# www.blender.org
mtllib shipdoor.mtl
o Door
v -1.258474 -0.879387 1.290452
v -1.084246 -1.053615 1.290452
v -1.084246 1.473860 1.290452
v -1.258474 1.299631 1.290452
v -1.084246 -1.053615 1.044994
v -1.258474 -0.879387 1.044994
v -1.258474 1.299631 1.044994
v -1.084246 1.473860 1.044994
v 0.383939 -1.053615 1.290452
v 0.558167 -0.879387 1.290452
v 0.558167 1.299631 1.290452
v 0.383939 1.473860 1.290452
v 0.558167 -0.879387 1.044994
v 0.383939 -1.053615 1.044994
v 0.383939 1.473860 1.044994
v 0.558167 1.299631 1.044994
v -0.714823 -1.053615 1.044994
v 0.014516 -1.053615 1.044994
v 0.014516 -1.053615 1.290452
v -0.714823 -1.053615 1.290452
v 0.014516 1.473860 1.290452
v -0.714823 1.473860 1.290452
v 0.014516 1.473860 1.044994
v -0.714823 1.473860 1.044994
v 0.101066 1.299631 1.290452
v -0.801373 1.299631 1.290452
v 0.101066 -0.879387 1.290452
v -0.801373 -0.879387 1.290452
v -0.801373 -0.879387 1.044994
v 0.101066 -0.879387 1.044994
v -0.801373 1.299631 1.044994
v 0.101066 1.299631 1.044994
v -1.258474 0.290773 1.290452
v -1.258474 1.017112 1.290452
v -1.258474 1.017112 1.044994
v -1.258474 0.290773 1.044994
v 0.558167 0.290773 1.290452
v 0.558167 1.017112 1.290452
v 0.558167 1.017112 1.044994
v 0.558167 0.290773 1.044994
v -0.702159 1.017112 1.167723
v -0.801373 0.917899 1.167723
v 0.101066 0.917899 1.167723
v 0.001853 1.017112 1.167723
v 0.001853 0.290773 1.167723
v 0.101066 0.389987 1.167723
v -0.702159 0.290773 1.167723
v -0.801373 0.389987 1.167723
v -0.801373 0.917899 1.144208
v -0.900586 1.116326 1.044994
v -0.702159 1.017112 1.144208
v -0.801373 0.389987 1.144208
v -0.702159 0.290773 1.144208
v -0.900586 0.191559 1.044994
v 0.101066 0.917899 1.144208
v 0.001853 1.017112 1.144208
v 0.200280 1.116326 1.044994
v 0.101066 0.389987 1.144208
v 0.200280 0.191559 1.044994
v 0.001853 0.290773 1.144208
v 0.101066 0.917899 1.191239
v 0.200280 1.116326 1.290452
v 0.001853 1.017112 1.191239
v 0.101066 0.389987 1.191239
v 0.001853 0.290773 1.191239
v 0.200280 0.191559 1.290452
v -0.801373 0.917899 1.191239
v -0.702159 1.017112 1.191239
v -0.900586 1.116326 1.290452
v -0.801373 0.389987 1.191239
v -0.900586 0.191559 1.290452
v -0.702159 0.290773 1.191239
vn -0.0000 -0.0000 1.0000
vn 1.0000 -0.0000 -0.0000
vn -0.0000 1.0000 -0.0000
vn -1.0000 -0.0000 -0.0000
vn -0.0000 -0.0000 -1.0000
vn -0.7071 -0.7071 -0.0000
vn -0.7071 0.7071 -0.0000
vn 0.7071 -0.7071 -0.0000
vn 0.7071 0.7071 -0.0000
vn -0.0000 -1.0000 -0.0000
vn 0.3015 -0.3015 -0.9045
vn 0.3015 0.3015 -0.9045
vn -0.3015 -0.3015 -0.9045
vn -0.3015 0.3015 -0.9045
vn -0.3015 -0.3015 0.9045
vn -0.3015 0.3015 0.9045
vn 0.3015 -0.3015 0.9045
vn 0.3015 0.3015 0.9045
vn 0.7071 -0.0000 -0.7071
vn -0.7071 -0.0000 -0.7071
vn -0.7071 -0.0000 0.7071
vn 0.7071 -0.0000 0.7071
vn -0.0000 0.7071 0.7071
vn -0.0000 -0.7071 0.7071
vn -0.0000 0.7071 -0.7071
vn -0.0000 -0.7071 -0.7071
vt 0.607767 0.833333
vt 0.607767 0.750000
vt 0.625000 0.773977
vt 0.625000 0.841326
vt 0.579822 0.500000
vt 0.607767 0.500000
vt 0.607767 0.750000
vt 0.579822 0.750000
vt 0.783674 0.500000
vt 0.851023 0.500000
vt 0.851023 0.750000
vt 0.783674 0.750000
vt 0.579822 0.000000
vt 0.607767 0.000000
vt 0.607767 0.250000
vt 0.579822 0.250000
vt 0.607767 0.416667
vt 0.625000 0.408674
vt 0.625000 0.476023
vt 0.607767 0.500000
vt 0.148977 0.500000
vt 0.148977 0.750000
vt 0.125000 0.750000
vt 0.125000 0.500000
vt 0.625000 0.000000
vt 0.625000 0.250000
vt 0.351023 0.750000
vt 0.351023 0.500000
vt 0.392233 0.500000
vt 0.392233 0.750000
vt 0.648977 0.500000
vt 0.648977 0.750000
vt 0.283674 0.500000
vt 0.283674 0.750000
vt 0.498164 0.934754
vt 0.589635 0.934754
vt 0.579822 1.000000
vt 0.507977 1.000000
vt 0.375000 0.908674
vt 0.392233 0.916667
vt 0.392233 1.000000
vt 0.375000 0.976023
vt 0.375000 0.408674
vt 0.392233 0.416667
vt 0.375000 0.476023
vt 0.517791 0.625000
vt 0.570008 0.625000
vt 0.570008 0.585082
vt 0.517791 0.585082
vt 0.570008 0.625000
vt 0.517791 0.625000
vt 0.517791 0.569115
vt 0.570008 0.569115
vt 0.507977 0.250000
vt 0.589635 0.315246
vt 0.498164 0.315246
vt 0.375000 0.273977
vt 0.392233 0.250000
vt 0.392233 0.333333
vt 0.375000 0.341326
vt 0.375000 0.773977
vt 0.392233 0.833333
vt 0.375000 0.841326
vt 0.507977 0.750000
vt 0.498164 0.815246
vt 0.589635 0.815246
vt 0.498164 0.815246
vt 0.216326 0.500000
vt 0.216326 0.750000
vt 0.607767 0.250000
vt 0.625000 0.273977
vt 0.625000 0.341326
vt 0.607767 0.333333
vt 0.716326 0.500000
vt 0.716326 0.750000
vt 0.607767 1.000000
vt 0.607767 0.916667
vt 0.625000 0.908674
vt 0.625000 0.976023
vt 0.589635 0.934754
vt 0.498164 0.824172
vt 0.498164 0.925828
vt 0.589635 0.815246
vt 0.507977 0.625000
vt 0.507977 0.583834
vt 0.507977 0.570364
vt 0.498164 0.324172
vt 0.498164 0.425828
vt 0.579822 0.625000
vt 0.579822 0.570364
vt 0.579822 0.583834
vt 0.589635 0.824172
vt 0.589635 0.925828
vt 0.498164 0.434754
vt 0.507977 0.500000
vt 0.570008 0.680884
vt 0.579822 0.679636
vt 0.498164 0.934754
vt 0.392233 0.000000
vt 0.507977 0.000000
vt 0.589635 0.434754
vt 0.498164 0.434754
vt 0.589635 0.434754
vt 0.589635 0.315246
vt 0.498164 0.315246
vt 0.589635 0.324172
vt 0.570008 0.664918
vt 0.579822 0.666166
vt 0.517791 0.664918
vt 0.507977 0.666166
vt 0.517791 0.680884
vt 0.507977 0.679636
vt 0.589635 0.425828
vt 0.000000 0.000000
s 0
usemtl Material.001
f 44/114/1 45/114/1 46/114/1 43/114/1
f 47/114/1 45/114/1 44/114/1 41/114/1
f 48/114/1 47/114/1 41/114/1 42/114/1
usemtl Material.005
f 25/1/1 11/2/1 12/3/1 21/4/1
f 39/5/2 16/6/2 11/7/2 38/8/2
f 24/9/3 8/10/3 3/11/3 22/12/3
f 34/13/4 4/14/4 7/15/4 35/16/4
f 32/17/5 23/18/5 15/19/5 16/20/5
f 5/21/6 2/22/6 1/23/6 6/24/6
f 3/25/7 8/26/7 7/15/7 4/14/7
f 9/27/8 14/28/8 13/29/8 10/30/8
f 15/31/9 12/32/9 11/7/9 16/6/9
f 18/33/10 14/28/10 9/27/10 19/34/10
f 71/35/1 69/36/1 34/37/1 33/38/1
f 20/39/1 28/40/1 1/41/1 2/42/1
f 18/43/5 30/44/5 13/29/5 14/45/5
f 46/46/4 43/47/4 55/48/4 58/49/4
f 42/50/2 48/51/2 52/52/2 49/53/2
f 36/54/5 35/16/5 50/55/5 54/56/5
f 5/57/5 6/58/5 29/59/5 17/60/5
f 17/60/5 29/59/5 30/44/5 18/43/5
f 9/61/1 10/30/1 27/62/1 19/63/1
f 19/63/1 27/62/1 28/40/1 20/39/1
f 10/30/1 37/64/1 66/65/1 27/62/1
f 37/64/1 38/8/1 62/66/1 66/67/1
f 5/21/10 17/68/10 20/69/10 2/22/10
f 17/68/10 18/33/10 19/34/10 20/69/10
f 7/70/5 8/71/5 24/72/5 31/73/5
f 31/73/5 24/72/5 23/18/5 32/17/5
f 15/31/3 23/74/3 21/75/3 12/32/3
f 23/74/3 24/9/3 22/12/3 21/75/3
f 4/76/1 26/77/1 22/78/1 3/79/1
f 26/77/1 25/1/1 21/4/1 22/78/1
f 69/80/1 26/77/1 4/76/1 34/37/1
f 27/62/1 66/81/1 71/82/1 28/40/1
f 38/8/1 11/2/1 25/1/1 62/83/1
f 47/84/3 45/84/3 60/85/3 53/86/3
f 29/59/5 54/87/5 59/88/5 30/44/5
f 44/89/10 41/89/10 51/90/10 56/91/10
f 62/92/1 25/1/1 26/77/1 69/93/1
f 30/44/5 59/94/5 40/95/5 13/29/5
f 67/96/8 42/50/8 41/89/8 68/97/8
f 28/40/1 71/98/1 33/38/1 1/41/1
f 1/99/4 33/100/4 36/54/4 6/58/4
f 33/100/4 34/13/4 35/16/4 36/54/4
f 13/29/2 40/95/2 37/64/2 10/30/2
f 40/95/2 39/5/2 38/8/2 37/64/2
f 57/101/5 32/17/5 16/20/5 39/5/5
f 59/102/5 57/103/5 39/5/5 40/95/5
f 35/16/5 7/70/5 31/73/5 50/104/5
f 6/58/5 36/54/5 54/105/5 29/59/5
f 49/53/11 50/106/11 51/90/11
f 52/52/12 53/86/12 54/56/12
f 55/48/13 56/91/13 57/103/13
f 58/49/14 59/88/14 60/85/14
f 61/107/15 62/92/15 63/108/15
f 64/109/16 65/110/16 66/67/16
f 67/96/17 68/97/17 69/36/17
f 70/111/18 71/82/18 72/112/18
f 49/53/19 52/52/19 54/56/19 50/55/19
f 57/103/20 59/102/20 58/49/20 55/48/20
f 61/107/21 64/109/21 66/67/21 62/66/21
f 69/36/22 71/35/22 70/111/22 67/96/22
f 65/110/23 72/112/23 71/82/23 66/81/23
f 62/92/24 69/93/24 68/97/24 63/108/24
f 53/86/25 60/85/25 59/88/25 54/87/25
f 50/106/26 57/113/26 56/91/26 51/90/26
f 48/51/9 70/111/9 72/112/9 47/84/9
f 46/46/7 58/49/7 60/85/7 45/84/7
f 44/89/6 56/91/6 55/48/6 43/47/6
f 42/50/8 49/53/8 51/90/8 41/89/8
f 50/106/5 31/73/5 32/17/5 57/113/5
f 63/108/6 44/89/6 43/47/6 61/107/6
f 64/109/7 46/46/7 45/84/7 65/110/7
f 52/52/9 48/51/9 47/84/9 53/86/9
f 63/108/10 68/97/10 41/89/10 44/89/10
f 72/112/3 65/110/3 45/84/3 47/84/3
f 67/96/2 70/111/2 48/51/2 42/50/2
f 64/109/4 61/107/4 43/47/4 46/46/4
