# Blender 4.0.2
# www.blender.org
mtllib shipbigfins.mtl
o BigFins
v -3.437421 -0.967658 1.951013
v -3.445153 -0.790005 2.028409
v -3.126838 -0.576678 1.084599
v -3.134571 -0.399025 1.161995
v -2.487711 -1.057061 2.251110
v -2.495444 -0.879409 2.328506
v -2.092591 -0.559661 1.148867
v -2.100324 -0.382009 1.226263
v -3.789718 -1.584888 3.332589
v -3.797450 -1.407235 3.409985
v -3.453193 -1.439643 3.518766
v -3.445460 -1.617296 3.441370
v -3.437421 -0.967657 -1.945087
v -3.445153 -0.790005 -2.022483
v -3.126838 -0.576678 -1.078673
v -3.134571 -0.399025 -1.156069
v -2.487711 -1.057061 -2.245184
v -2.495444 -0.879409 -2.322580
v -2.092591 -0.559661 -1.142941
v -2.100324 -0.382009 -1.220337
v -3.789718 -1.584888 -3.326663
v -3.797450 -1.407235 -3.404059
v -3.453193 -1.439643 -3.512840
v -3.445460 -1.617296 -3.435444
vn -0.9497 0.0894 -0.3001
vn 0.0503 0.4007 -0.9148
vn 0.9497 -0.0894 0.3001
vn 0.0399 -0.9160 -0.3991
vn -0.0399 0.9160 0.3991
vn -0.3106 -0.3910 0.8664
vn 0.8075 -0.2057 0.5529
vn -0.9731 0.0550 -0.2236
vn -0.9497 0.0894 0.3001
vn 0.0503 0.4007 0.9148
vn 0.9497 -0.0894 -0.3001
vn 0.0399 -0.9160 0.3991
vn -0.0399 0.9160 -0.3991
vn -0.3106 -0.3910 -0.8664
vn 0.8075 -0.2057 -0.5529
vn -0.9731 0.0550 0.2236
vt 0.375000 0.000000
vt 0.625000 0.000000
vt 0.625000 0.250000
vt 0.375000 0.250000
vt 0.625000 0.500000
vt 0.375000 0.500000
vt 0.625000 0.750000
vt 0.375000 0.750000
vt 0.125000 0.750000
vt 0.125000 0.500000
vt 0.875000 0.500000
vt 0.875000 0.750000
vt 0.625000 1.000000
vt 0.375000 1.000000
s 0
usemtl Material.004
f 1/1/1 2/2/1 4/3/1 3/4/1
f 3/4/2 4/3/2 8/5/2 7/6/2
f 7/6/3 8/5/3 6/7/3 5/8/3
f 1/9/4 5/8/4 12/8/4 9/9/4
f 3/10/4 7/6/4 5/8/4 1/9/4
f 8/5/5 4/11/5 2/12/5 6/7/5
f 12/8/6 11/7/6 10/13/6 9/14/6
f 6/7/5 2/12/5 10/12/5 11/7/5
f 5/8/7 6/7/7 11/7/7 12/8/7
f 2/2/8 1/1/8 9/1/8 10/2/8
f 13/1/9 15/4/9 16/3/9 14/2/9
f 15/4/10 19/6/10 20/5/10 16/3/10
f 19/6/11 17/8/11 18/7/11 20/5/11
f 13/9/12 21/9/12 24/8/12 17/8/12
f 15/10/12 13/9/12 17/8/12 19/6/12
f 20/5/13 18/7/13 14/12/13 16/11/13
f 24/8/14 21/14/14 22/13/14 23/7/14
f 18/7/13 23/7/13 22/12/13 14/12/13
f 17/8/15 24/8/15 23/7/15 18/7/15
f 14/2/16 22/2/16 21/1/16 13/1/16
