# Blender 4.0.2
# www.blender.org
mtllib shipseat.mtl
o Seat
v 4.492314 3.812507 0.509063
v 4.492314 4.397530 0.509063
v 4.492314 3.812507 -0.509060
v 4.492314 4.397530 -0.509060
v 5.236494 3.812507 0.509063
v 5.796107 4.397530 0.509063
v 5.236494 3.812507 -0.509060
v 5.796107 4.397530 -0.509060
v 4.492314 4.581697 0.509063
v 4.492314 4.581697 -0.509060
v 5.630081 4.581697 -0.509060
v 5.630081 4.581697 0.509063
v 4.651403 3.812507 -0.509060
v 4.771036 4.397530 -0.509060
v 4.651403 3.812507 0.509063
v 4.771036 4.397530 0.509063
v 4.735543 4.581697 -0.509060
v 4.735543 4.581697 0.509063
v 4.254223 5.264528 0.373978
v 4.254223 5.264528 -0.373976
v 4.393757 5.264528 0.373978
v 4.393757 5.264528 -0.373976
v 4.381872 6.101381 0.321244
v 4.381872 6.101381 -0.321242
v 4.501731 6.101381 0.321244
v 4.501731 6.101381 -0.321242
v 4.492314 3.147315 -0.509060
v 4.492314 3.147315 0.509063
v 4.651403 3.147315 -0.509060
v 5.236494 3.147315 0.509063
v 5.236494 3.147315 -0.509060
v 4.651403 3.147315 0.509063
vn -1.0000 -0.0000 -0.0000
vn -0.0000 -0.0000 -1.0000
vn 0.7226 -0.6912 -0.0000
vn -0.0000 -0.0000 1.0000
vn 0.8942 0.4476 -0.0000
vn 0.7427 0.6696 -0.0000
vn -0.0000 1.0000 -0.0000
vn -0.0000 0.0629 -0.9980
vn -0.9442 -0.3292 -0.0000
vn -0.0000 0.1941 0.9810
vn -0.0000 0.1941 -0.9810
vn -0.9886 0.1508 -0.0000
vn 0.9918 -0.1280 -0.0000
vn -0.0000 0.0629 0.9980
vn -0.0000 -1.0000 -0.0000
vn 1.0000 -0.0000 -0.0000
vt 0.375000 0.000000
vt 0.625000 0.000000
vt 0.625000 0.250000
vt 0.375000 0.250000
vt 0.375000 0.303444
vt 0.625000 0.303444
vt 0.625000 0.500000
vt 0.375000 0.500000
vt 0.625000 0.750000
vt 0.375000 0.750000
vt 0.375000 0.946556
vt 0.625000 0.946556
vt 0.625000 1.000000
vt 0.375000 1.000000
vt 0.821556 0.750000
vt 0.821556 0.500000
vt 0.625000 0.946556
vt 0.875000 0.500000
vt 0.875000 0.750000
vt 0.178444 0.500000
vt 0.178444 0.750000
vt 0.125000 0.500000
vt 0.125000 0.750000
s 0
usemtl Material.007
f 1/1/1 2/2/1 4/3/1 3/4/1
f 13/5/2 14/6/2 8/7/2 7/8/2
f 7/8/3 8/7/3 6/9/3 5/10/3
f 15/11/4 16/12/4 2/13/4 1/14/4
f 3/4/2 13/5/2 29/5/2 27/4/2
f 14/6/2 4/3/2 10/3/2 17/6/2
f 4/3/1 2/2/1 9/2/1 10/3/1
f 16/12/4 6/9/4 12/9/4 18/17/4
f 2/13/4 16/12/4 18/17/4 9/13/4
f 8/7/2 14/6/2 17/6/2 11/7/2
f 5/10/4 15/11/4 32/11/4 30/10/4
f 5/10/4 6/9/4 16/12/4 15/11/4
f 3/4/2 4/3/2 14/6/2 13/5/2
f 22/6/8 20/3/8 24/3/8 26/6/8
f 10/3/9 9/2/9 19/2/9 20/3/9
f 9/13/10 18/17/10 21/17/10 19/13/10
f 17/6/11 10/3/11 20/3/11 22/6/11
f 20/3/12 19/2/12 23/2/12 24/3/12
f 19/13/14 21/17/14 25/17/14 23/13/14
f 29/20/15 31/8/15 30/10/15 32/21/15
f 27/22/15 29/20/15 32/21/15 28/23/15
f 15/11/4 1/14/4 28/14/4 32/11/4
f 1/1/1 3/4/1 27/4/1 28/1/1
f 13/5/2 7/8/2 31/8/2 29/5/2
f 7/8/16 5/10/16 30/10/16 31/8/16
usemtl Material.008
f 18/15/5 17/16/5 22/16/5 21/15/5
f 6/9/6 8/7/6 11/7/6 12/9/6
f 11/7/7 17/16/7 18/15/7 12/9/7
f 26/16/7 24/18/7 23/19/7 25/15/7
f 21/15/13 22/16/13 26/16/13 25/15/13
