# Blender 4.0.2
# www.blender.org
mtllib shipbox.mtl
o BOX
v -5.792621 -2.229544 0.762503
v -5.792621 -1.291831 0.762503
v -5.792621 -2.229544 -0.992830
v -5.792621 -1.291831 -0.992830
v -4.854907 -2.229544 0.762503
v -4.854907 -1.291831 0.762503
v -4.854907 -2.229544 -0.992830
v -4.854907 -1.291831 -0.992830
v -4.558469 -2.287605 0.407480
v -4.558469 -1.349891 0.407480
v -5.088416 -2.287605 -1.265945
v -5.088416 -1.349891 -1.265945
v -3.664512 -2.287605 0.124378
v -3.664512 -1.349891 0.124378
v -4.194458 -2.287605 -1.549047
v -4.194458 -1.349891 -1.549047
vn -1.0000 -0.0000 -0.0000
vn -0.0000 -0.0000 -1.0000
vn 1.0000 -0.0000 -0.0000
vn -0.0000 -0.0000 1.0000
vn -0.0000 -1.0000 -0.0000
vn -0.0000 1.0000 -0.0000
vn -0.9533 -0.0000 0.3019
vn -0.3019 -0.0000 -0.9533
vn 0.9533 -0.0000 -0.3019
vn 0.3019 -0.0000 0.9533
vt 0.375000 0.000000
vt 0.625000 0.000000
vt 0.625000 0.250000
vt 0.375000 0.250000
vt 0.625000 0.500000
vt 0.375000 0.500000
vt 0.625000 0.750000
vt 0.375000 0.750000
vt 0.625000 1.000000
vt 0.375000 1.000000
vt 0.125000 0.500000
vt 0.125000 0.750000
vt 0.875000 0.500000
vt 0.875000 0.750000
s 0
f 1/1/1 2/2/1 4/3/1 3/4/1
f 3/4/2 4/3/2 8/5/2 7/6/2
f 7/6/3 8/5/3 6/7/3 5/8/3
f 5/8/4 6/7/4 2/9/4 1/10/4
f 3/11/5 7/6/5 5/8/5 1/12/5
f 8/5/6 4/13/6 2/14/6 6/7/6
f 9/1/7 10/2/7 12/3/7 11/4/7
f 11/4/8 12/3/8 16/5/8 15/6/8
f 15/6/9 16/5/9 14/7/9 13/8/9
f 13/8/10 14/7/10 10/9/10 9/10/10
f 11/11/5 15/6/5 13/8/5 9/12/5
f 16/5/6 12/13/6 10/14/6 14/7/6
