# Blender 4.0.2
# www.blender.org
mtllib shipbody.mtl
o Ship
v -3.681493 -1.067183 1.253050
v -3.681493 1.432992 1.253050
v -3.681493 -1.067183 -1.247125
v -3.681493 1.432992 -1.247125
v 3.179076 -1.067183 1.253050
v 2.849847 1.432992 1.253050
v 3.179076 -1.067183 -1.247125
v 2.849847 1.432992 -1.247125
v -4.069800 0.866915 1.253050
v -4.069800 0.866915 -1.247125
v 3.437756 0.866915 -1.247125
v 3.437756 0.866915 1.253050
v -4.069800 -0.607245 -1.247125
v 3.437756 -0.607245 -1.247125
v 3.437756 -0.607245 1.253050
v -4.069800 -0.607245 1.253050
v -4.069800 -1.067183 -0.976887
v -4.069800 -1.067183 0.982813
v -4.069800 1.720832 0.982813
v -4.069800 1.720832 -0.976888
v 3.909259 -1.067183 0.982813
v 3.909259 -1.067183 -0.976888
v 3.062670 1.720832 -0.976887
v 3.062670 1.720832 0.982813
v 4.426619 0.623062 -0.976887
v 4.426619 0.623062 0.982813
v -4.481336 0.866915 0.982813
v -4.481336 0.866915 -0.976888
v -4.481336 -0.607245 0.982813
v -4.481336 -0.607245 -0.976888
v 4.426619 -0.363393 -0.976887
v 4.426619 -0.363393 0.982813
v 0.955870 -1.067183 -1.247125
v 0.727615 1.432992 -1.247125
v 0.955870 -1.067183 1.253050
v 0.727615 1.432992 1.253050
v 1.135214 0.866915 1.253050
v 1.135214 0.866915 -1.247125
v 1.135214 -0.607245 -1.247125
v 1.135214 -0.607245 1.253050
v 0.875165 1.720832 -0.976888
v 0.875165 1.720832 0.982813
v 1.462109 -1.067183 -0.976888
v 1.462109 -1.067183 0.982813
v 1.387245 2.679358 -0.976888
v 1.387245 2.679358 0.982813
v 1.387245 4.484843 -0.760560
v 1.387245 3.993708 0.982813
v -1.703563 2.679358 0.982813
v -2.400139 2.679358 0.286238
v -2.958341 2.262672 0.982813
v -2.400139 2.679358 -0.280312
v -1.703563 2.679358 -0.976888
v -2.958341 2.262672 -0.976888
v 2.366094 2.679358 -0.976887
v 3.062670 2.679358 -0.280312
v 3.062670 1.982783 -0.976887
v 3.062670 2.679358 0.286238
v 2.366094 2.679358 0.982813
v 3.062670 1.982783 0.982813
v -1.866041 4.648528 0.065007
v -1.482333 4.648528 0.448715
v -1.482333 4.648528 -0.442790
v -1.866041 4.648528 -0.059082
v 2.528572 4.648528 -0.059081
v 2.144864 4.648528 -0.442789
v 2.144864 4.648528 0.448715
v 2.528572 4.648528 0.065007
v 3.062670 3.993708 0.286238
v 2.366094 3.993708 0.982813
v -1.703563 3.993708 0.982813
v -2.400139 3.993708 0.286238
v 2.366094 3.993708 -0.976887
v 3.062670 3.993708 -0.280312
v -2.400139 3.993708 -0.280312
v -1.703563 3.993708 -0.976888
v 1.387245 4.484843 0.766486
v 1.387245 3.993708 -0.976888
v 2.846342 4.484843 0.196632
v 2.276489 4.484843 0.766486
v -1.613957 4.484843 0.766486
v -2.183811 4.484843 0.196632
v 2.276489 4.484843 -0.760560
v 2.846342 4.484843 -0.190706
v -2.183811 4.484843 -0.190706
v -1.613957 4.484843 -0.760560
v 1.387245 4.648528 0.448715
v 1.387245 4.648528 -0.442790
v -1.686680 -0.945879 1.129727
v -1.042425 1.378810 1.113667
v -3.660718 -0.945879 -1.123802
v -3.661326 1.378810 -1.107741
v 3.164526 -0.941714 1.124626
v 2.834201 1.377855 1.115787
v 3.164526 -0.941714 -1.118700
v 2.834201 1.377855 -1.109861
v -1.229584 0.853268 1.114105
v -4.024132 0.853268 -1.108179
v 3.407001 0.840831 -1.107901
v 3.407001 0.840831 1.113827
v -4.019477 -0.582939 -1.108375
v 3.412610 -0.595911 -1.107566
v 3.412610 -0.595911 1.113492
v -1.222432 -0.886456 1.174470
v -3.995233 -0.929253 -0.923875
v -3.995233 -0.929253 0.929801
v -3.948472 1.588814 0.885742
v -3.948472 1.588814 -0.879817
v 3.827302 -0.928317 0.899377
v 3.827302 -0.928317 -0.893451
v 2.953473 1.629189 -0.849128
v 2.953473 1.629189 0.855053
v 4.288328 0.561253 -0.883916
v 4.288328 0.561253 0.889842
v -4.339850 0.834832 0.908421
v -4.339850 0.834832 -0.902496
v -4.341120 -0.556721 0.912896
v -4.341120 -0.556721 -0.906970
v 4.284606 -0.319866 -0.880081
v 4.284606 -0.319866 0.886007
v 0.955870 -0.927183 -1.107125
v 0.727615 1.377571 -1.107125
v 0.419311 -0.927183 1.113051
v 0.404238 1.377571 1.113051
v 0.598654 0.866915 1.113051
v 1.135214 0.866915 -1.107125
v 1.135214 -0.607245 -1.107125
v 0.598654 -0.875752 1.173219
v 0.875165 1.665412 0.842813
v 1.462109 -0.927183 -0.976888
v 1.462109 -0.927183 0.982813
v 1.387245 2.679358 -0.836888
v 1.387245 2.679358 0.842813
v 1.387245 4.383071 -0.652408
v 1.387245 3.964242 0.842813
v -1.655379 2.652611 0.779232
v -2.262715 2.581748 0.239160
v -2.899079 2.145036 0.845732
v -2.262714 2.581748 -0.233234
v -1.655379 2.652611 -0.773306
v -2.899079 2.145036 -0.839806
v 2.319228 2.662840 -0.822728
v 2.908510 2.662840 -0.233446
v 2.931897 1.956079 -0.846115
v 2.908510 2.662840 0.239372
v 2.319228 2.662840 0.828654
v 2.931897 1.956079 0.852041
v -1.829819 4.509389 0.050004
v -1.467329 4.509389 0.412494
v -1.467329 4.509389 -0.406568
v -1.829819 4.509389 -0.044078
v 2.492350 4.509389 -0.044078
v 2.129860 4.509389 -0.406568
v 2.129860 4.509389 0.412494
v 2.492350 4.509389 0.050004
v 2.923311 3.961334 0.228514
v 2.308370 3.961334 0.843455
v -1.645839 3.961334 0.843455
v -2.260780 3.961334 0.228513
v 2.308370 3.961334 -0.837529
v 2.923311 3.961334 -0.222588
v -2.260780 3.961334 -0.222588
v -1.645839 3.961334 -0.837529
v 1.387245 4.383071 0.658334
v 1.387245 3.964242 -0.836888
v 2.739978 4.381362 0.152575
v 2.232431 4.381362 0.660122
v -1.569900 4.381362 0.660122
v -2.077447 4.381362 0.152575
v 2.232431 4.381362 -0.654196
v 2.739978 4.381362 -0.146649
v -2.077447 4.381362 -0.146649
v -1.569900 4.381362 -0.654196
v 1.387245 4.508528 0.414777
v 1.387245 4.508528 -0.408851
v 0.384863 -1.067183 -1.247125
v -1.160924 -1.067183 -1.247125
v 0.366167 1.432992 1.253050
v -1.103536 1.432992 1.253050
v 0.494311 0.866915 1.253050
v -1.240694 0.866915 1.253050
v 0.494311 -0.958811 1.253050
v -1.240694 -0.958811 1.253050
v 0.780955 -1.067183 -0.976888
v -1.063015 -1.067183 -0.976888
v 0.780955 -1.067183 0.982813
v -1.063015 -1.067183 0.982813
v -1.284989 1.432992 -1.247125
v 0.184713 1.432992 -1.247125
v -1.160924 -1.067183 1.253050
v 0.384863 -1.067183 1.253050
v -1.240693 0.866915 -1.247125
v 0.494311 0.866915 -1.247125
v -1.240693 -0.607245 -1.247125
v 0.494311 -0.607245 -1.247125
v -1.382039 1.720832 -0.976888
v 0.266283 1.720832 -0.976888
v -1.382039 1.720832 0.982813
v 0.266283 1.720832 0.982813
v 1.064726 2.075658 -0.976888
v 1.064727 2.075659 0.982813
v 0.761872 2.679358 -0.976888
v 0.761872 3.993708 -0.976888
v 0.780002 4.484843 -0.760560
v 0.806634 4.648528 -0.442790
v 0.250726 2.113497 -0.976888
v -0.398533 4.648528 -0.442790
v -0.480445 4.484843 -0.760560
v -0.536207 3.993708 -0.976888
v -0.536207 2.679358 -0.976888
v -1.438884 2.192039 -0.976888
v -0.559641 2.679358 0.982813
v -0.559641 3.993708 0.982813
v -0.503199 4.484843 0.766486
v -0.420289 4.648528 0.448715
v -1.469386 2.193458 0.982813
v 0.784420 2.679358 0.982813
v 0.784420 3.993708 0.982813
v 0.801897 4.484843 0.766486
v 0.827569 4.648528 0.448715
v 0.280076 2.112133 0.982813
v -3.523768 1.987025 -0.976888
v -3.523768 1.987025 0.982813
v 3.062670 1.849522 0.982813
v 3.062670 1.849522 -0.976887
v 0.968292 1.895149 -0.976888
v 0.968292 1.895149 0.982813
v -1.409966 1.952325 -0.976888
v 0.258640 1.913738 -0.976888
v 0.273059 1.913069 0.982813
v -1.424950 1.953021 0.982813
v 1.052718 2.016975 -0.836888
v 1.052717 2.016975 0.842813
v -3.423776 1.866925 -0.859811
v -3.423776 1.866925 0.865737
v 2.942685 1.792634 0.853547
v 2.942685 1.792634 -0.847621
v 0.963942 1.841193 -0.836888
v -3.948472 1.588814 0.002963
v 2.953473 1.629189 0.002963
v 1.914320 1.647300 -0.843008
v 1.914320 1.647300 0.848933
v -1.536653 1.627113 -0.858352
v -1.536653 1.627113 0.864278
v -1.536653 1.627113 0.002963
v 1.914320 1.647300 0.002963
v -1.229917 1.854059 0.854275
v 2.942685 1.792634 0.002963
v -3.423776 1.866925 0.002963
v -1.229917 1.854059 -0.848350
v 1.953313 1.816914 0.848180
v 1.953313 1.816914 -0.842255
v 1.953313 1.816914 0.002963
v -1.229917 1.854059 0.002963
v 0.875165 1.665411 -0.836863
v -1.503956 1.644138 0.002963
v -1.255113 1.648089 -0.666465
v -1.255113 1.648089 0.672391
v 1.718137 1.650719 0.678237
v 1.718138 1.650720 -0.672311
v 0.963941 1.841193 0.842788
v -1.415326 1.849051 0.002963
v 1.766006 1.821510 -0.673331
v 1.766006 1.821510 0.679257
v -1.166456 1.847591 0.672391
v -1.166456 1.847591 -0.666465
v 1.363424 1.727668 0.002963
v 1.305524 1.708104 -0.424005
v 1.390827 1.827190 0.002963
v 1.319806 1.814724 0.318171
v 1.319808 1.814747 -0.451617
v 0.900122 1.798337 -0.513770
v -0.993468 1.771863 -0.401309
v 1.305522 1.708076 0.290557
v 0.860849 1.659166 0.519008
v -0.913605 1.643602 0.452843
v 0.860849 1.659209 -0.513057
v -0.913602 1.643620 -0.446912
v -1.033103 1.605909 0.002963
v 0.900122 1.798292 0.519669
v -0.993470 1.771835 0.407241
v -1.079383 1.718957 0.002963
v -1.137776 -0.938592 -0.018736
v -1.195676 -0.958156 -0.445704
v -1.219056 -0.952479 -0.018736
v -1.290077 -0.964945 0.296471
v -1.290075 -0.964922 -0.473316
v -1.195678 -0.958184 0.268858
vn -0.4722 0.2660 -0.8404
vn -0.0000 -0.0000 -1.0000
vn 0.3591 0.4213 0.8328
vn -0.0000 -0.0000 1.0000
vn -0.0000 -1.0000 -0.0000
vn -0.0000 0.6845 0.7290
vn 0.2636 -0.0000 0.9646
vn -0.5489 -0.0000 -0.8359
vn -0.5034 -0.4377 -0.7450
vn 0.3205 -0.2137 0.9228
vn 0.3205 -0.2137 -0.9228
vn 0.8057 -0.5923 -0.0000
vn -0.5034 -0.4377 0.7450
vn -0.7452 -0.6668 -0.0000
vn -0.5489 -0.0000 0.8359
vn -1.0000 -0.0000 -0.0000
vn 0.2636 -0.0000 -0.9646
vn 1.0000 -0.0000 -0.0000
vn -0.0000 0.6845 -0.7290
vn 0.3591 0.4213 -0.8328
vn 0.6270 0.7790 -0.0000
vn -0.4722 0.2660 0.8404
vn -0.9008 0.4342 -0.0000
vn -0.0000 1.0000 -0.0000
vn -0.0000 0.4031 -0.9152
vn -0.5982 0.8014 -0.0000
vn -0.0000 0.8890 -0.4579
vn -0.3006 0.9052 0.3006
vn -0.3006 0.9052 -0.3006
vn 0.5774 0.5774 -0.5774
vn 0.5774 0.5774 0.5773
vn 0.7071 -0.0000 0.7071
vn -0.7071 -0.0000 0.7071
vn 0.7071 -0.0000 -0.7071
vn -0.7071 -0.0000 -0.7071
vn -0.4382 0.8989 -0.0000
vn 0.6471 0.4031 0.6471
vn -0.6471 0.4031 0.6471
vn 0.6471 0.4031 -0.6471
vn -0.6471 0.4031 -0.6471
vn -0.9152 0.4031 -0.0000
vn -0.0000 0.4031 0.9152
vn 0.9152 0.4031 -0.0000
vn 0.3238 0.8890 0.3238
vn -0.3238 0.8890 0.3238
vn 0.3238 0.8890 -0.3238
vn -0.3238 0.8890 -0.3238
vn -0.4579 0.8890 -0.0000
vn -0.0000 0.8890 0.4579
vn 0.4579 0.8890 -0.0000
vn 0.4907 -0.3040 0.8166
vn 0.0008 0.0026 1.0000
vn -0.3928 -0.4829 -0.7827
vn 0.0038 0.9984 0.0561
vn 0.0034 -0.6989 -0.7152
vn -0.2494 0.0015 -0.9684
vn 0.0003 0.0001 1.0000
vn 0.5383 -0.0007 0.8428
vn 0.4901 0.4363 0.7546
vn 0.0027 -0.0184 0.9998
vn -0.3125 0.2072 -0.9270
vn -0.0085 0.7130 -0.7011
vn -0.3125 0.2072 0.9270
vn -0.7994 0.6008 -0.0000
vn 0.0872 0.0403 -0.9954
vn 0.7328 0.6804 -0.0000
vn 0.0738 -0.0205 -0.9971
vn 1.0000 -0.0009 -0.0000
vn -0.2494 0.0015 0.9684
vn -1.0000 0.0042 -0.0000
vn 0.0024 -0.7070 0.7072
vn 0.0102 0.0247 0.9996
vn 0.0042 0.9987 -0.0515
vn 0.0005 1.0000 -0.0000
vn -0.3928 -0.4829 0.7827
vn -0.6247 -0.7809 -0.0000
vn 0.0702 -0.0497 -0.9963
vn 0.8876 -0.4607 -0.0000
vn -0.0003 -1.0000 -0.0000
vn -0.0072 0.0057 1.0000
vn -0.4683 0.8836 -0.0000
vn -0.0072 0.0057 -1.0000
vn 0.0009 -1.0000 -0.0000
vn -0.9995 -0.0331 -0.0000
vn -0.9999 0.0114 -0.0000
vn 0.0102 0.0247 -0.9996
vn 0.0050 -0.0056 1.0000
vn 0.0077 -0.0671 0.9977
vn -0.0038 -0.0389 -0.9992
vn 0.5658 -0.8245 -0.0000
vn -0.0004 1.0000 -0.0000
vn -0.0022 0.9988 -0.0491
vn 0.0050 -0.0056 -1.0000
vn -0.0035 -0.7008 0.7133
vn -0.0152 0.1386 -0.9902
vn -0.0018 -0.0231 0.9997
vn -0.0002 -0.0001 1.0000
vn -0.0096 -0.0188 -0.9998
vn -0.0032 -0.6999 -0.7143
vn -0.0030 0.9981 0.0619
vn 0.0007 0.0024 -1.0000
vn -0.0002 -0.0004 1.0000
vn 0.3504 -0.8948 -0.2766
vn 0.3504 -0.8948 0.2766
vn -0.5966 -0.5369 0.5966
vn -0.5966 -0.5369 -0.5966
vn -0.7071 0.0021 -0.7071
vn 0.6864 0.0116 -0.7271
vn -0.7071 0.0021 0.7071
vn 0.6864 0.0116 0.7271
vn 1.0000 -0.0014 -0.0000
vn 0.0070 0.0346 -0.9994
vn 0.4683 -0.8836 -0.0000
vn -0.9978 -0.0659 -0.0000
vn -0.6481 -0.4000 -0.6481
vn 0.6481 -0.4000 -0.6481
vn -0.6481 -0.4000 0.6481
vn 0.6481 -0.4000 0.6481
vn 0.9165 -0.4000 -0.0000
vn -0.0001 -0.4016 -0.9158
vn -0.0001 -0.4016 0.9158
vn -0.9165 -0.4000 -0.0000
vn 0.0002 -0.4015 0.9158
vn 0.0002 -0.4015 -0.9158
vn -0.3247 -0.8883 -0.3247
vn 0.3247 -0.8883 -0.3247
vn -0.3247 -0.8883 0.3247
vn 0.3247 -0.8883 0.3247
vn 0.4593 -0.8883 -0.0000
vn 0.0002 -0.8887 -0.4586
vn 0.0002 -0.8887 0.4586
vn -0.4593 -0.8883 -0.0000
vn -0.0006 -0.8887 0.4585
vn -0.0006 -0.8887 -0.4585
vn 0.9908 0.0043 0.1349
vn -0.0019 0.7146 0.6996
vn -0.7230 -0.0116 -0.6907
vn -0.8799 -0.2636 -0.3954
vn -0.0003 -0.9310 0.3651
vn 0.9135 -0.2713 0.3031
vn 0.0070 0.0347 0.9994
vn 0.9978 0.0659 -0.0000
vn -0.0022 -0.0175 0.9998
vn 0.0077 -0.0671 -0.9977
vn -0.0022 -0.0175 -0.9998
vn -0.0038 -0.0389 0.9992
vn -0.0055 0.0058 1.0000
vn -0.0055 0.0057 -1.0000
vn 0.0059 1.0000 -0.0000
vn -0.0174 -0.9998 -0.0000
vn 0.0338 0.9984 -0.0453
vn 0.0159 -0.9999 -0.0000
vn 0.0338 0.9984 0.0453
vn 0.0503 -0.9969 0.0607
vn 0.0503 -0.9969 -0.0607
vn 0.0245 0.9997 -0.0000
vn 0.0019 1.0000 -0.0074
vn 0.3072 0.9412 0.1409
vn 0.0078 -0.9955 0.0948
vn 0.0089 0.9806 0.1960
vn 0.3073 0.9411 -0.1409
vn -0.1220 -0.9913 -0.0489
vn 0.0070 -0.9997 0.0239
vn -0.0390 -0.9980 0.0500
vn 0.7279 -0.6823 -0.0674
vn -0.4485 0.1980 -0.8716
vn 0.0498 -0.1582 -0.9861
vn 0.8760 0.4099 -0.2541
vn 0.8760 0.4099 0.2542
vn 0.0498 -0.1580 0.9862
vn -0.1814 0.1515 0.9717
vn -0.7261 0.6810 0.0948
vn -0.1301 -0.9905 0.0445
vn 0.0070 -0.9997 -0.0238
vn 0.0006 1.0000 0.0081
vn 0.0039 -0.9973 -0.0740
vn -0.0155 0.9980 -0.0609
vn -0.0390 -0.9980 -0.0500
vn -0.0120 0.9968 0.0795
vn 0.0089 0.9805 -0.1961
vn 0.1122 -0.9933 -0.0288
vn 0.1137 -0.9933 0.0194
vn 0.7253 -0.6812 0.0996
vn 0.2953 -0.2699 -0.9165
vn -0.7217 0.6787 -0.1358
vn 0.2871 -0.2768 0.9170
vt 0.568396 0.166667
vt 0.625000 0.166667
vt 0.625000 0.250000
vt 0.568396 0.250000
vt 0.568396 0.423326
vt 0.625000 0.423326
vt 0.625000 0.500000
vt 0.568396 0.500000
vt 0.568396 0.666667
vt 0.625000 0.666667
vt 0.625000 0.750000
vt 0.568396 0.750000
vt 0.568396 0.905791
vt 0.625000 0.905791
vt 0.625000 1.000000
vt 0.568396 1.000000
vt 0.298326 0.666667
vt 0.375000 0.666667
vt 0.375000 0.750000
vt 0.298326 0.750000
vt 0.780791 0.666667
vt 0.875000 0.666667
vt 0.875000 0.750000
vt 0.780791 0.750000
vt 0.420991 0.905791
vt 0.420991 1.000000
vt 0.420991 0.666667
vt 0.420991 0.750000
vt 0.420991 0.423326
vt 0.420991 0.500000
vt 0.420991 0.166667
vt 0.420991 0.250000
vt 0.375000 0.166667
vt 0.375000 0.250000
vt 0.375000 0.423326
vt 0.375000 0.500000
vt 0.375000 0.905791
vt 0.375000 1.000000
vt 0.420991 0.583333
vt 0.375000 0.583333
vt 0.375000 0.000000
vt 0.420991 0.000000
vt 0.420991 0.083333
vt 0.375000 0.083333
vt 0.568396 0.000000
vt 0.568396 0.083333
vt 0.568396 0.583333
vt 0.780791 0.500000
vt 0.875000 0.500000
vt 0.875000 0.583333
vt 0.780791 0.583333
vt 0.789699 0.583333
vt 0.843122 0.583333
vt 0.843122 0.583333
vt 0.789699 0.583333
vt 0.298326 0.500000
vt 0.298326 0.583333
vt 0.625000 0.583333
vt 0.625000 0.000000
vt 0.625000 0.083333
vt 0.701674 0.606045
vt 0.728245 0.606045
vt 0.783399 0.606045
vt 0.832998 0.606045
vt 0.850558 0.622362
vt 0.850558 0.627638
vt 0.832998 0.643955
vt 0.784394 0.643955
vt 0.727287 0.643955
vt 0.701674 0.643955
vt 0.656878 0.583333
vt 0.701674 0.583333
vt 0.701674 0.583333
vt 0.839021 0.592532
vt 0.787147 0.592532
vt 0.701674 0.666667
vt 0.656878 0.666667
vt 0.649442 0.622362
vt 0.667002 0.606045
vt 0.667003 0.643955
vt 0.649443 0.627638
vt 0.625000 0.583333
vt 0.625000 0.612954
vt 0.625000 0.637046
vt 0.729262 0.666667
vt 0.729262 0.666667
vt 0.736744 0.583333
vt 0.730294 0.583333
vt 0.809537 0.583333
vt 0.701674 0.583333
vt 0.625000 0.112954
vt 0.625000 0.137046
vt 0.276984 0.583333
vt 0.276984 0.666667
vt 0.276984 0.500000
vt 0.729464 0.592532
vt 0.701674 0.500000
vt 0.701674 0.583333
vt 0.420991 0.826674
vt 0.375000 0.826674
vt 0.375000 0.401984
vt 0.420991 0.401984
vt 0.568396 0.401984
vt 0.568396 0.826674
vt 0.701674 0.750000
vt 0.276984 0.750000
vt 0.625000 0.826674
vt 0.625000 0.401984
vt 0.625000 0.112954
vt 0.729760 0.583333
vt 0.723016 0.583333
vt 0.634900 0.633236
vt 0.660979 0.657468
vt 0.839021 0.657468
vt 0.865100 0.633235
vt 0.875000 0.637046
vt 0.843122 0.666667
vt 0.660979 0.592532
vt 0.634900 0.616764
vt 0.865100 0.616765
vt 0.875000 0.612954
vt 0.788188 0.657468
vt 0.790771 0.666667
vt 0.701674 0.592532
vt 0.730294 0.583333
vt 0.701674 0.657468
vt 0.788337 0.666667
vt 0.788337 0.583333
vt 0.625000 0.625000
vt 0.625000 0.125000
vt 0.701674 0.583333
vt 0.663337 0.583333
vt 0.788337 0.666667
vt 0.875000 0.666667
vt 0.125000 0.583333
vt 0.125000 0.666667
vt 0.125000 0.500000
vt 0.663337 0.666667
vt 0.663337 0.583333
vt 0.125000 0.750000
vt 0.875000 0.583333
vt 0.788337 0.583333
vt 0.625000 0.344209
vt 0.568396 0.344209
vt 0.219209 0.666667
vt 0.219209 0.750000
vt 0.420991 0.344209
vt 0.375000 0.344209
vt 0.219209 0.500000
vt 0.219209 0.583333
vt 0.723016 0.500000
vt 0.420991 0.848016
vt 0.375000 0.848016
vt 0.568396 0.848016
vt 0.723016 0.666667
vt 0.723016 0.750000
vt 0.625000 0.848016
vt 0.701674 0.666667
vt 0.795559 0.666667
vt 0.810851 0.666667
vt 0.875000 0.666667
vt 0.735479 0.666667
vt 0.794914 0.583333
vt 0.790771 0.666667
vt 0.728462 0.657468
vt 0.729139 0.666667
vt 0.000000 0.000000
s 0
usemtl Material.001
f 55/71/2 45/72/2 78/73/2 73/71/2
f 46/76/4 59/77/4 70/77/4 48/76/4
f 65/78/24 66/79/24 88/61/24 87/70/24 67/80/24 68/81/24
f 58/84/18 56/83/18 74/83/18 69/84/18
f 58/84/32 69/84/32 70/77/32 59/77/32
f 55/71/34 73/71/34 74/83/34 56/83/34
f 79/112/37 80/113/37 70/77/37 69/84/37
f 83/118/39 84/119/39 74/83/39 73/71/39
f 84/119/43 79/112/43 69/84/43 74/83/43
f 47/124/25 83/118/25 73/71/25 78/73/25
f 80/113/42 77/126/42 48/76/42 70/77/42
f 68/81/44 67/80/44 80/113/44 79/112/44
f 66/79/46 65/78/46 84/119/46 83/118/46
f 65/78/50 68/81/50 79/112/50 84/119/50
f 88/61/27 66/79/27 83/118/27 47/124/27
f 67/80/49 87/70/49 77/126/49 80/113/49
f 142/71/80 160/71/80 165/73/80 132/72/80
f 133/76/82 135/76/82 157/77/82 146/77/82
f 152/78/83 155/81/83 154/80/83 174/70/83 175/61/83 153/79/83
f 145/84/85 156/84/85 161/83/85 143/83/85
f 145/84/107 146/77/107 157/77/107 156/84/107
f 142/71/109 143/83/109 161/83/109 160/71/109
f 166/112/115 156/84/115 157/77/115 167/113/115
f 170/118/117 160/71/117 161/83/117 171/119/117
f 171/119/122 161/83/122 156/84/122 166/112/122
f 134/124/123 165/73/123 160/71/123 170/118/123
f 167/113/124 157/77/124 135/76/124 164/126/124
f 155/81/125 166/112/125 167/113/125 154/80/125
f 153/79/127 170/118/127 171/119/127 152/78/127
f 152/78/132 171/119/132 166/112/132 155/81/132
f 175/61/133 134/124/133 170/118/133 153/79/133
f 154/80/134 167/113/134 164/126/134 174/70/134
usemtl Material.002
f 210/52/2 53/53/2 76/54/2 209/55/2
f 88/61/24 205/62/24 207/63/24 63/64/24 64/65/24 61/66/24 62/67/24 215/68/24 220/69/24 87/70/24
f 86/74/25 208/75/25 209/55/25 76/54/25
f 60/10/18 57/82/18 56/83/18 58/84/18
f 217/85/4 46/76/4 48/76/4 218/86/4
f 45/72/2 200/73/2 206/87/2 202/88/2
f 210/52/2 211/89/2 54/50/2 53/53/2
f 226/90/2 200/73/2 57/82/2 225/82/2
f 54/2/26 51/60/26 50/91/26 52/92/26
f 207/63/27 205/62/27 204/96/27 208/75/27
f 49/60/28 50/91/28 51/60/28
f 52/92/29 53/2/29 54/2/29
f 55/71/30 56/58/30 57/82/30
f 58/84/31 59/10/31 60/10/31
f 72/109/33 50/91/33 49/60/33 71/60/33
f 52/92/35 75/92/35 76/2/35 53/2/35
f 52/92/16 50/91/16 72/109/16 75/92/16
f 229/110/2 226/90/2 41/98/2 197/111/2
f 222/2/36 223/60/36 51/60/36 54/2/36
f 224/10/18 225/82/18 57/82/18 60/10/18
f 81/114/38 82/115/38 72/116/38 71/117/38
f 85/120/40 86/74/40 76/54/40 75/121/40
f 82/115/41 85/120/41 75/121/41 72/116/41
f 214/122/42 81/114/42 71/117/42 213/123/42
f 204/96/25 47/124/25 78/73/25 203/125/25
f 62/67/45 61/66/45 82/115/45 81/114/45
f 64/65/47 63/64/47 86/74/47 85/120/47
f 61/66/48 64/65/48 85/120/48 82/115/48
f 215/68/49 62/67/49 81/114/49 214/122/49
f 205/62/27 88/61/27 47/124/27 204/96/27
f 132/72/72 165/73/72 163/54/72 140/53/72
f 175/61/79 174/70/79 149/67/79 148/66/79 151/65/79 150/64/79
f 147/10/84 145/84/84 143/83/84 144/82/84
f 136/117/86 158/117/86 135/76/86 133/76/86
f 237/82/87 144/82/87 232/73/87 238/131/87 252/132/87
f 132/72/88 140/53/88 141/50/88 232/73/88
f 138/22/89 233/76/89 261/76/89 247/133/89 235/134/89
f 141/2/90 139/92/90 137/91/90 138/60/90
f 261/76/93 233/76/93 147/10/93 236/10/93 251/138/93
f 136/60/103 138/60/103 137/91/103
f 139/92/104 141/2/104 140/2/104
f 142/71/105 144/82/105 143/58/105
f 145/84/106 147/10/106 146/10/106
f 159/109/108 158/60/108 136/60/108 137/91/108
f 139/92/110 140/2/110 163/2/110 162/92/110
f 139/92/111 162/92/111 159/109/111 137/91/111
f 238/131/112 255/98/112 243/128/112 108/50/112 234/141/112 250/142/112
f 234/2/113 141/2/113 138/60/113 235/60/113 249/130/113
f 236/10/114 147/10/114 144/82/114 237/82/114 248/129/114
f 168/114/116 158/117/116 159/116/116 169/115/116
f 172/120/118 162/121/118 163/54/118 173/74/118
f 169/115/119 159/116/119 162/121/119 172/120/119
f 164/126/120 135/76/120 158/117/120 168/114/120
f 173/74/121 163/54/121 165/73/121 134/124/121
f 149/67/126 168/114/126 169/115/126 148/66/126
f 151/65/128 172/120/128 173/74/128 150/64/128
f 148/66/129 169/115/129 172/120/129 151/65/129
f 174/70/130 164/126/130 168/114/130 149/67/130
f 150/64/131 173/74/131 134/124/131 175/61/131
f 224/10/4 227/158/4 42/76/4 24/10/4
f 46/76/4 201/76/4 60/10/4 59/77/4
f 231/159/4 216/160/4 51/22/4 223/161/4
f 57/82/2 200/73/2 45/72/2 55/71/2
f 45/72/2 202/88/2 203/125/2 78/73/2
f 221/162/4 201/76/4 46/76/4 217/85/4
f 208/75/25 204/96/25 203/125/25 209/55/25
f 63/64/27 207/63/27 208/75/27 86/74/27
f 202/88/2 206/87/2 211/89/2 210/52/2
f 202/88/2 210/52/2 209/55/2 203/125/2
f 222/50/2 228/163/2 196/51/2 20/50/2
f 228/163/2 229/110/2 197/111/2 196/51/2
f 51/22/4 216/160/4 212/164/4 49/117/4
f 220/69/49 215/68/49 214/122/49 219/165/49
f 219/165/42 214/122/42 213/123/42 218/86/42
f 49/117/4 212/164/4 213/123/4 71/117/4
f 77/126/42 219/165/42 218/86/42 48/76/42
f 87/70/49 220/69/49 219/165/49 77/126/49
f 216/160/4 221/162/4 217/85/4 212/164/4
f 212/164/4 217/85/4 218/86/4 213/123/4
f 227/158/4 201/76/4 221/162/4 230/166/4
f 230/166/4 221/162/4 216/160/4 231/159/4
f 199/155/4 230/166/4 231/159/4 198/21/4
f 42/76/4 227/158/4 230/166/4 199/155/4
f 211/89/2 206/87/2 229/110/2 228/163/2
f 54/50/2 211/89/2 228/163/2 222/50/2
f 198/21/4 231/159/4 223/161/4 19/22/4
f 60/10/4 201/76/4 227/158/4 224/10/4
f 24/10/18 23/58/18 225/82/18 224/10/18
f 20/2/36 19/60/36 223/60/36 222/2/36
f 206/87/2 200/73/2 226/90/2 229/110/2
f 41/98/2 226/90/2 225/82/2 23/58/2
f 235/134/141 107/22/141 244/127/141 129/76/141 261/76/141 247/133/141
f 232/73/143 144/82/143 142/71/143 132/72/143
f 233/76/144 138/22/144 136/117/144 133/76/144
f 147/10/145 233/76/145 133/76/145 146/77/145
f 232/73/146 141/50/146 234/141/146 250/142/146 238/131/146
usemtl Material.006
f 130/57/74 131/17/74 109/18/74 110/40/74
f 105/135/91 106/136/91 131/17/91 130/57/91
f 254/167/149 250/167/149 234/167/149 249/167/149
f 261/167/151 265/167/151 262/167/151 254/167/151 247/167/151
f 238/167/153 250/167/153 254/167/153 262/167/153 266/167/153
f 248/167/156 237/167/156 252/167/156 253/167/156
f 236/167/156 248/167/156 253/167/156 251/167/156
f 253/167/156 252/167/156 238/167/156 263/167/156
f 251/167/156 253/167/156 264/167/156 261/167/156
f 247/167/149 254/167/149 249/167/149 235/167/149
f 263/167/157 271/167/157 269/167/157 253/167/157
f 262/167/158 282/167/158 273/167/158 266/167/158
f 266/167/160 273/167/160 272/167/160 238/167/160
f 265/167/161 281/167/161 282/167/161 262/167/161
f 271/167/172 287/167/172 285/167/172 269/167/172
f 253/167/175 269/167/175 270/167/175 264/167/175
f 264/167/177 270/167/177 280/167/177 261/167/177
f 238/167/179 272/167/179 271/167/179 263/167/179
f 261/167/180 280/167/180 281/167/180 265/167/180
f 269/167/185 285/167/185 286/167/185 270/167/185
usemtl Material.009
f 28/1/1 20/2/1 4/3/1 10/4/1
f 38/5/2 34/6/2 8/7/2 11/8/2
f 26/9/3 24/10/3 6/11/3 12/12/3
f 181/13/4 179/14/4 2/15/4 9/16/4
f 44/17/5 21/18/5 5/19/5 35/20/5
f 198/21/6 19/22/6 2/23/6 179/24/6
f 183/25/4 181/13/4 9/16/4 16/26/4
f 32/27/7 26/9/7 12/12/7 15/28/7
f 39/29/2 38/5/2 11/8/2 14/30/2
f 30/31/8 28/1/8 10/4/8 13/32/8
f 17/33/9 30/31/9 13/32/9 3/34/9
f 33/35/2 39/29/2 14/30/2 7/36/2
f 21/18/10 32/27/10 15/28/10 5/19/10
f 190/37/4 183/25/4 16/26/4 1/38/4
f 7/36/11 14/30/11 31/39/11 22/40/11
f 22/40/12 31/39/12 32/27/12 21/18/12
f 1/41/13 16/42/13 29/43/13 18/44/13
f 18/44/14 29/43/14 30/31/14 17/33/14
f 16/42/15 9/45/15 27/46/15 29/43/15
f 29/43/16 27/46/16 28/1/16 30/31/16
f 14/30/17 11/8/17 25/47/17 31/39/17
f 31/39/18 25/47/18 26/9/18 32/27/18
f 188/48/19 4/49/19 20/50/19 196/51/19
f 33/56/5 7/36/5 22/40/5 43/57/5
f 43/57/5 22/40/5 21/18/5 44/17/5
f 11/8/20 8/7/20 23/58/20 25/47/20
f 25/47/21 23/58/21 24/10/21 26/9/21
f 9/45/22 2/59/22 19/60/22 27/46/22
f 27/46/23 19/60/23 20/2/23 28/1/23
f 184/93/5 43/57/5 44/17/5 186/94/5
f 176/95/5 33/56/5 43/57/5 184/93/5
f 8/7/19 34/97/19 41/98/19 23/58/19
f 5/19/4 15/28/4 40/99/4 35/100/4
f 176/101/2 195/102/2 39/29/2 33/35/2
f 195/102/2 193/103/2 38/5/2 39/29/2
f 15/28/4 12/12/4 37/104/4 40/99/4
f 24/10/6 42/76/6 36/105/6 6/11/6
f 186/94/5 44/17/5 35/20/5 191/106/5
f 12/12/4 6/11/4 36/107/4 37/104/4
f 193/103/2 189/108/2 34/6/2 38/5/2
f 116/1/51 98/4/51 92/3/51 108/2/51
f 126/5/52 99/8/52 96/7/52 122/6/52
f 114/9/53 100/12/53 94/11/53 112/10/53
f 131/17/54 123/20/54 93/19/54 109/18/54
f 129/76/55 124/105/55 90/23/55 107/22/55 244/127/55
f 120/27/56 103/28/56 100/12/56 114/9/56
f 127/29/57 102/30/57 99/8/57 126/5/57
f 118/31/58 101/32/58 98/4/58 116/1/58
f 105/33/59 91/34/59 101/32/59 118/31/59
f 121/35/60 95/36/60 102/30/60 127/29/60
f 109/18/61 93/19/61 103/28/61 120/27/61
f 123/100/62 89/38/62 104/26/62 128/99/62
f 95/36/63 110/40/63 119/39/63 102/30/63
f 110/40/64 109/18/64 120/27/64 119/39/64
f 89/41/65 106/44/65 117/43/65 104/42/65
f 106/44/66 105/33/66 118/31/66 117/43/66
f 104/42/67 117/43/67 115/46/67 97/45/67
f 117/43/68 118/31/68 116/1/68 115/46/68
f 102/30/69 119/39/69 113/47/69 99/8/69
f 119/39/70 120/27/70 114/9/70 113/47/70
f 122/97/71 255/98/71 243/128/71 108/50/71 92/49/71
f 121/56/73 130/57/73 110/40/73 95/36/73
f 99/8/75 113/47/75 111/58/75 96/7/75
f 113/47/76 114/9/76 112/10/76 240/129/76 111/58/76
f 97/45/77 115/46/77 107/60/77 90/59/77
f 115/46/78 116/1/78 108/2/78 239/130/78 107/60/78
f 108/2/81 239/130/81 107/60/81 235/60/81 249/130/81 234/2/81
f 91/137/92 105/135/92 130/57/92 121/56/92
f 96/7/94 111/58/94 241/139/94 255/98/94 122/97/94
f 93/19/95 123/100/95 128/99/95 103/28/95
f 91/34/96 121/35/96 127/29/96 101/32/96
f 101/32/97 127/29/97 126/5/97 98/4/97
f 103/28/98 128/99/98 125/104/98 100/12/98
f 112/10/99 94/11/99 124/105/99 129/76/99 242/138/99
f 106/136/100 89/140/100 123/20/100 131/17/100
f 100/12/101 125/104/101 124/107/101 94/11/101
f 98/4/102 126/5/102 122/6/102 92/3/102
f 10/4/2 4/3/2 188/143/2 192/144/2
f 192/144/2 188/143/2 189/108/2 193/103/2
f 18/136/5 187/145/5 190/146/5 1/140/5
f 187/145/5 186/94/5 191/106/5 190/146/5
f 13/32/2 10/4/2 192/144/2 194/147/2
f 194/147/2 192/144/2 193/103/2 195/102/2
f 3/34/2 13/32/2 194/147/2 177/148/2
f 177/148/2 194/147/2 195/102/2 176/101/2
f 3/137/5 177/149/5 185/150/5 17/135/5
f 177/149/5 176/95/5 184/93/5 185/150/5
f 17/135/5 185/150/5 187/145/5 18/136/5
f 185/150/5 184/93/5 186/94/5 187/145/5
f 34/97/19 189/151/19 197/111/19 41/98/19
f 189/151/19 188/48/19 196/51/19 197/111/19
f 35/100/4 40/99/4 182/152/4 191/153/4
f 191/153/4 182/152/4 183/25/4 190/37/4
f 40/99/4 37/104/4 180/154/4 182/152/4
f 42/76/6 199/155/6 178/156/6 36/105/6
f 199/155/6 198/21/6 179/24/6 178/156/6
f 37/104/4 36/107/4 178/157/4 180/154/4
f 181/13/135 183/25/135 104/42/135 97/45/135
f 183/25/136 182/152/136 128/99/136 104/26/136
f 182/152/137 180/154/137 125/104/137 128/99/137
f 180/154/138 178/157/138 124/107/138 125/104/138
f 178/156/139 179/24/139 90/23/139 124/105/139
f 179/14/140 181/13/140 97/45/140 90/59/140
f 112/10/142 240/129/142 111/58/142 237/82/142 248/129/142 236/10/142
f 129/76/147 242/138/147 112/10/147 236/10/147 251/138/147 261/76/147
f 111/58/148 241/139/148 255/98/148 238/131/148 252/132/148 237/82/148
f 246/167/150 241/167/150 111/167/150 240/167/150
f 129/167/150 259/167/150 246/167/150 242/167/150
f 239/167/152 108/167/152 243/167/152 245/167/152
f 107/167/152 239/167/152 245/167/152 244/167/152
f 245/167/154 243/167/154 255/167/154 257/167/154 256/167/154
f 244/167/155 245/167/155 256/167/155 258/167/155 129/167/155
f 242/167/150 246/167/150 240/167/150 112/167/150
f 255/167/150 241/167/150 246/167/150 260/167/150
f 260/167/159 268/167/159 277/167/159 255/167/159
f 259/167/162 274/167/162 267/167/162 246/167/162
f 258/167/163 276/167/163 275/167/163 129/167/163
f 256/167/164 279/167/164 276/167/164 258/167/164
f 267/167/165 283/167/165 284/167/165 268/167/165
f 270/167/166 274/167/166 275/167/166 280/167/166
f 280/167/167 275/167/167 276/167/167 281/167/167
f 281/167/168 276/167/168 279/167/168 282/167/168
f 282/167/169 279/167/169 278/167/169 273/167/169
f 273/167/170 278/167/170 277/167/170 272/167/170
f 272/167/171 277/167/171 268/167/171 271/167/171
f 246/167/173 267/167/173 268/167/173 260/167/173
f 255/167/174 277/167/174 278/167/174 257/167/174
f 129/167/176 275/167/176 274/167/176 259/167/176
f 257/167/178 278/167/178 279/167/178 256/167/178
f 285/167/181 283/167/181 288/167/181 286/167/181
f 287/167/182 284/167/182 283/167/182 285/167/182
f 274/167/183 288/167/183 283/167/183 267/167/183
f 268/167/184 284/167/184 287/167/184 271/167/184
f 270/167/186 286/167/186 288/167/186 274/167/186
