# Blender 4.0.2
# www.blender.org
mtllib shipsmallfins.mtl
o SmallFins
v 2.113072 -1.003980 1.607671
v 2.108395 -0.894097 1.648469
v 2.300935 -0.796847 1.071318
v 2.296258 -0.686964 1.112116
v 2.687526 -1.047931 1.791906
v 2.682849 -0.938048 1.832703
v 2.926523 -0.784419 1.109563
v 2.921846 -0.674536 1.150361
v 1.899977 -1.330515 2.462727
v 1.895300 -1.220632 2.503524
v 2.103532 -1.236564 2.570307
v 2.108209 -1.346447 2.529510
v 2.113072 -1.003980 -1.601745
v 2.108395 -0.894097 -1.642543
v 2.300935 -0.796847 -1.065392
v 2.296258 -0.686964 -1.106190
v 2.687526 -1.047932 -1.785980
v 2.682849 -0.938049 -1.826777
v 2.926523 -0.784419 -1.103638
v 2.921846 -0.674536 -1.144435
v 1.899977 -1.330515 -2.456801
v 1.895300 -1.220632 -2.497598
v 2.103532 -1.236564 -2.564381
v 2.108209 -1.346447 -2.523583
vn -0.9497 0.0727 -0.3046
vn 0.0503 0.3495 -0.9356
vn 0.9497 -0.0727 0.3046
vn 0.0399 -0.9367 -0.3478
vn -0.0399 0.9367 0.3478
vn -0.3106 -0.3424 0.8867
vn 0.8075 -0.1748 0.5634
vn -0.9731 0.0426 -0.2263
vn -0.9497 0.0727 0.3046
vn 0.0503 0.3495 0.9356
vn 0.9497 -0.0727 -0.3046
vn 0.0399 -0.9367 0.3478
vn -0.0399 0.9367 -0.3478
vn -0.3106 -0.3424 -0.8867
vn 0.8075 -0.1748 -0.5634
vn -0.9731 0.0426 0.2263
vt 0.375000 0.000000
vt 0.625000 0.000000
vt 0.625000 0.250000
vt 0.375000 0.250000
vt 0.625000 0.500000
vt 0.375000 0.500000
vt 0.625000 0.750000
vt 0.375000 0.750000
vt 0.125000 0.750000
vt 0.125000 0.500000
vt 0.875000 0.500000
vt 0.875000 0.750000
vt 0.625000 1.000000
vt 0.375000 1.000000
s 0
usemtl Material.004
f 1/1/1 2/2/1 4/3/1 3/4/1
f 3/4/2 4/3/2 8/5/2 7/6/2
f 7/6/3 8/5/3 6/7/3 5/8/3
f 1/9/4 5/8/4 12/8/4 9/9/4
f 3/10/4 7/6/4 5/8/4 1/9/4
f 8/5/5 4/11/5 2/12/5 6/7/5
f 12/8/6 11/7/6 10/13/6 9/14/6
f 6/7/5 2/12/5 10/12/5 11/7/5
f 5/8/7 6/7/7 11/7/7 12/8/7
f 2/2/8 1/1/8 9/1/8 10/2/8
f 13/1/9 15/4/9 16/3/9 14/2/9
f 15/4/10 19/6/10 20/5/10 16/3/10
f 19/6/11 17/8/11 18/7/11 20/5/11
f 13/9/12 21/9/12 24/8/12 17/8/12
f 15/10/12 13/9/12 17/8/12 19/6/12
f 20/5/13 18/7/13 14/12/13 16/11/13
f 24/8/14 21/14/14 22/13/14 23/7/14
f 18/7/13 23/7/13 22/12/13 14/12/13
f 17/8/15 24/8/15 23/7/15 18/7/15
f 14/2/16 22/2/16 21/1/16 13/1/16
