# Blender 4.0.2
# www.blender.org
mtllib shiplightsbottom.mtl
o Light.005
v 1.938563 1.647525 -0.321230
v 1.938563 1.204177 -0.325262
v 1.826429 1.647525 -0.256490
v 1.822937 1.204176 -0.258506
v 1.826429 1.647525 -0.127009
v 1.822937 1.204176 -0.124993
v 1.938563 1.647525 -0.062269
v 1.938563 1.204177 -0.058237
v 2.050696 1.647525 -0.127009
v 2.054188 1.204177 -0.124993
v 2.050696 1.647525 -0.256490
v 2.054188 1.204177 -0.258506
v 1.732463 1.171559 -0.310741
v 1.938563 1.171559 -0.429732
v 1.732463 1.171559 -0.072758
v 1.938563 1.171559 0.046234
v 2.144662 1.171559 -0.072758
v 2.144662 1.171559 -0.310741
v -2.012194 1.647525 -0.321230
v -2.012194 1.204177 -0.325262
v -2.124328 1.647525 -0.256490
v -2.127820 1.204177 -0.258506
v -2.124328 1.647525 -0.127009
v -2.127820 1.204177 -0.124993
v -2.012194 1.647525 -0.062269
v -2.012194 1.204177 -0.058237
v -1.900061 1.647525 -0.127009
v -1.896569 1.204177 -0.124993
v -1.900061 1.647525 -0.256490
v -1.896569 1.204177 -0.258506
v -2.218294 1.171559 -0.310741
v -2.012194 1.171559 -0.429732
v -2.218294 1.171559 -0.072758
v -2.012194 1.171559 0.046234
v -1.806095 1.171559 -0.072758
v -1.806095 1.171559 -0.310741
vn -0.4905 0.1937 -0.8496
vn -0.9811 0.1937 -0.0000
vn -0.4905 0.1937 0.8496
vn 0.4905 0.1937 0.8496
vn -0.0000 -1.0000 -0.0000
vn 0.9811 0.1937 -0.0000
vn 0.4905 0.1937 -0.8496
vn -0.0000 1.0000 -0.0000
vn 0.1696 -0.9407 0.2937
vn 0.3392 -0.9407 -0.0000
vn 0.1696 -0.9407 -0.2937
vn -0.1696 -0.9407 -0.2937
vn -0.3392 -0.9407 -0.0000
vn -0.1696 -0.9407 0.2937
vt 1.000000 0.500000
vt 1.000000 1.000000
vt 0.833333 1.000000
vt 0.833333 0.500000
vt 0.666667 1.000000
vt 0.666667 0.500000
vt 0.500000 1.000000
vt 0.500000 0.500000
vt 0.333333 1.000000
vt 0.333333 0.500000
vt 0.366605 0.317322
vt 0.250000 0.384644
vt 0.133395 0.317322
vt 0.133395 0.182678
vt 0.250000 0.115356
vt 0.366605 0.182678
vt 0.166667 1.000000
vt 0.166667 0.500000
vt -0.000000 1.000000
vt -0.000000 0.500000
vt 0.750000 0.490000
vt 0.957846 0.370000
vt 0.957846 0.130000
vt 0.750000 0.010000
vt 0.542154 0.130000
vt 0.542154 0.370000
vt 0.457846 0.370000
vt 0.250000 0.490000
vt 0.457846 0.130000
vt 0.250000 0.010000
vt 0.042154 0.130000
vt 0.042154 0.370000
s 0
usemtl Material.003
f 1/1/1 14/2/1 13/3/1 3/4/1
f 3/4/2 13/3/2 15/5/2 5/6/2
f 5/6/3 15/5/3 16/7/3 7/8/3
f 7/8/4 16/7/4 17/9/4 9/10/4
f 9/10/6 17/9/6 18/17/6 11/18/6
f 11/18/7 18/17/7 14/19/7 1/20/7
f 1/21/8 3/22/8 5/23/8 7/24/8 9/25/8 11/26/8
f 2/12/9 4/11/9 13/27/9 14/28/9
f 4/11/10 6/16/10 15/29/10 13/27/10
f 6/16/11 8/15/11 16/30/11 15/29/11
f 8/15/12 10/14/12 17/31/12 16/30/12
f 10/14/13 12/13/13 18/32/13 17/31/13
f 12/13/14 2/12/14 14/28/14 18/32/14
f 19/1/1 32/2/1 31/3/1 21/4/1
f 21/4/2 31/3/2 33/5/2 23/6/2
f 23/6/3 33/5/3 34/7/3 25/8/3
f 25/8/4 34/7/4 35/9/4 27/10/4
f 27/10/6 35/9/6 36/17/6 29/18/6
f 29/18/7 36/17/7 32/19/7 19/20/7
f 19/21/8 21/22/8 23/23/8 25/24/8 27/25/8 29/26/8
f 20/12/9 22/11/9 31/27/9 32/28/9
f 22/11/10 24/16/10 33/29/10 31/27/10
f 24/16/11 26/15/11 34/30/11 33/29/11
f 26/15/12 28/14/12 35/31/12 34/30/12
f 28/14/13 30/13/13 36/32/13 35/31/13
f 30/13/14 20/12/14 32/28/14 36/32/14
usemtl Material.010
f 4/11/5 2/12/5 12/13/5 10/14/5 8/15/5 6/16/5
f 22/11/5 20/12/5 30/13/5 28/14/5 26/15/5 24/16/5
